<svg width="24" height="27" viewBox="0 0 24 27" fill="none" xmlns="http://www.w3.org/2000/svg">
<path fill-rule="evenodd" clip-rule="evenodd" d="M12 27C18.6274 27 24 21.6274 24 15C24 8.37258 18.6274 3 12 3C5.37258 3 0 8.37258 0 15C0 21.6274 5.37258 27 12 27Z" fill="#F62F5E"/>
<path d="M12.9223 10.976C13.6369 10.976 14.2876 11.12 14.8743 11.408C15.4609 11.696 15.9249 12.1067 16.2663 12.64C16.6076 13.1627 16.7783 13.7707 16.7783 14.464C16.7783 15.2107 16.5916 15.8667 16.2183 16.432C15.8449 16.9973 15.3329 17.4347 14.6823 17.744C14.0423 18.0427 13.3276 18.192 12.5383 18.192C10.9703 18.192 9.74358 17.712 8.85825 16.752C7.97292 15.792 7.53025 14.4213 7.53025 12.64C7.53025 11.3707 7.77025 10.2827 8.25025 9.376C8.73025 8.46933 9.39692 7.78133 10.2503 7.312C11.1143 6.84267 12.1116 6.608 13.2423 6.608C13.8396 6.608 14.4103 6.67733 14.9543 6.816C15.5089 6.944 15.9783 7.13067 16.3623 7.376L15.4023 9.28C14.8476 8.90667 14.1489 8.72 13.3063 8.72C12.3569 8.72 11.6049 8.99733 11.0503 9.552C10.4956 10.1067 10.1969 10.912 10.1543 11.968C10.8156 11.3067 11.7383 10.976 12.9223 10.976ZM12.3943 16.256C12.9489 16.256 13.3969 16.1067 13.7383 15.808C14.0903 15.5093 14.2663 15.104 14.2663 14.592C14.2663 14.08 14.0903 13.6747 13.7383 13.376C13.3969 13.0667 12.9383 12.912 12.3623 12.912C11.7969 12.912 11.3329 13.072 10.9703 13.392C10.6076 13.7013 10.4263 14.1013 10.4263 14.592C10.4263 15.0827 10.6023 15.4827 10.9543 15.792C11.3063 16.1013 11.7863 16.256 12.3943 16.256Z" fill="white"/>
</svg>
